<svg width="60" height="60" viewBox="0 0 60 60" fill="none" xmlns="http://www.w3.org/2000/svg">
<path d="M30 0C13.4314 0 0 13.432 0 30C0 46.568 13.4314 60 30 60C46.5686 60 60 46.568 60 30C60 13.432 46.5686 0 30 0ZM36.5408 17.7072H47.7698V21.0586H36.5408V17.7072ZM30.8655 35.2855C30.8655 43.5922 22.2206 43.3191 22.2206 43.3191H14.2981H14.0655H8.05811V16.1039H14.0655H14.2981H22.2199C26.524 16.1039 29.9214 18.48 29.9214 23.35C29.9214 28.2206 25.7684 28.5293 25.7684 28.5293C31.243 28.5293 30.8655 35.2855 30.8655 35.2855ZM42.5555 39.5779C47.0793 39.5779 46.9191 36.65 46.9191 36.65H51.7086C51.7086 44.4203 42.3959 43.8881 42.3959 43.8881C31.2203 43.8881 31.939 33.484 31.939 33.484C31.939 33.484 31.9304 23.0283 42.3947 23.0283C53.4107 23.0283 51.8682 34.8411 51.8682 34.8411H37.7659C37.7659 39.8983 42.5555 39.5779 42.5555 39.5779Z" fill="white"/>
</svg>
