<svg width="16" height="20" viewBox="0 0 16 20" fill="none" xmlns="http://www.w3.org/2000/svg">
<path d="M8.25105 0.00410749C4.18946 -0.13277 0.854004 3.11892 0.854004 7.14959C0.854004 11.724 5.24383 15.0437 7.70432 19.818C7.82924 20.0604 8.17819 20.0607 8.30354 19.8183C10.5294 15.5225 14.3337 12.6418 15.0387 8.50326C15.7687 4.22064 12.5929 0.150487 8.25105 0.00410749ZM8.00358 10.8946C5.9353 10.8946 4.25858 9.21783 4.25858 7.14959C4.25858 5.08136 5.93534 3.40459 8.00358 3.40459C10.0719 3.40459 11.7486 5.08136 11.7486 7.14959C11.7486 9.21783 10.0719 10.8946 8.00358 10.8946Z" fill="white"/>
</svg>
